
  <svg width="400" height="200" xmlns="http://www.w3.org/2000/svg" class="container">
    <style>
      .bg { fill: #0d1117; }
      .card-bg { fill: #161b22; stroke: #30363d; }
      .header { font: bold 16px 'Segoe UI', Ubuntu, Sans-Serif; fill: #58a6ff; }
    </style>
    <rect width="100%" height="100%" rx="8" ry="8" class="bg"/>
    <rect x="5" y="5" width="390" height="190" rx="8" ry="8" class="card-bg"/>
    <text x="20" y="32" class="header">Languages Distribution</text>

    <g transform="translate(-40, 0)">
      
      <path d="M 175,105 L 175,50 A 55,55 0 1,1 154.817427109206,156.16310928303506 Z"
            fill="#79c0ff" opacity="0.9" />
    
      <path d="M 175,105 L 154.817427109206,156.16310928303506 A 55,55 0 0,1 125.16118843782905,81.73859716030833 Z"
            fill="#3572A5" opacity="0.9" />
    
      <path d="M 175,105 L 125.16118843782905,81.73859716030833 A 55,55 0 0,1 153.82476988967636,54.239684498864236 Z"
            fill="#f1e05a" opacity="0.9" />
    
      <path d="M 175,105 L 153.82476988967636,54.239684498864236 A 55,55 0 0,1 163.98209188232414,51.11488423775586 Z"
            fill="#e34c26" opacity="0.9" />
    
      <path d="M 175,105 L 163.98209188232414,51.11488423775586 A 55,55 0 0,1 171.7534814434209,50.09590072442871 Z"
            fill="#563d7c" opacity="0.9" />
    
      <path d="M 175,105 L 171.7534814434209,50.09590072442871 A 55,55 0 0,1 174.82721268827663,50.0002714138978 Z"
            fill="#f34b7d" opacity="0.9" />
    
    </g>

    
        <g transform="translate(210, 70)">
          <rect x="0" y="-10" width="12" height="12" rx="2" fill="#79c0ff"/>
          <text x="20" y="0" font-family="Segoe UI" font-size="12" fill="#8b949e">Jupyter Notebook - 55.98%</text>
        </g>

        <g transform="translate(210, 92)">
          <rect x="0" y="-10" width="12" height="12" rx="2" fill="#3572A5"/>
          <text x="20" y="0" font-family="Segoe UI" font-size="12" fill="#8b949e">Python - 25.97%</text>
        </g>

        <g transform="translate(210, 114)">
          <rect x="0" y="-10" width="12" height="12" rx="2" fill="#f1e05a"/>
          <text x="20" y="0" font-family="Segoe UI" font-size="12" fill="#8b949e">JavaScript - 11.76%</text>
        </g>

        <g transform="translate(210, 136)">
          <rect x="0" y="-10" width="12" height="12" rx="2" fill="#e34c26"/>
          <text x="20" y="0" font-family="Segoe UI" font-size="12" fill="#8b949e">HTML - 3.08%</text>
        </g>

        <g transform="translate(210, 158)">
          <rect x="0" y="-10" width="12" height="12" rx="2" fill="#563d7c"/>
          <text x="20" y="0" font-family="Segoe UI" font-size="12" fill="#8b949e">CSS - 2.27%</text>
        </g>

        <g transform="translate(210, 180)">
          <rect x="0" y="-10" width="12" height="12" rx="2" fill="#f34b7d"/>
          <text x="20" y="0" font-family="Segoe UI" font-size="12" fill="#8b949e">C++ - 0.89%</text>
        </g>
  </svg>