
  <svg width="400" height="200" xmlns="http://www.w3.org/2000/svg" class="container">
    <style>
      .bg { fill: #0d1117; }
      .card-bg { fill: #161b22; stroke: #30363d; }
      .header { font: bold 16px 'Segoe UI', Ubuntu, Sans-Serif; fill: #58a6ff; }
      .stat { font: 12px 'Segoe UI', Ubuntu, Sans-Serif; fill: #8b949e; }
    </style>
    <rect width="100%" height="100%" rx="8" ry="8" class="bg"/>
    <rect x="5" y="5" width="390" height="190" rx="8" ry="8" class="card-bg"/>
    <text x="20" y="32" class="header">Productive Time</text>
    <text x="20" y="50" class="stat">Recent commits grouped by hour (local offset applied).</text>
    <g transform="translate(0, 0)">
      
        <g transform="translate(20, 0)">
          <rect x="0" y="131" width="10" height="4" fill="#58a6ff" opacity="0.85">
            <title>12AM: 0 commits</title>
          </rect>
          <text x="5" y="153" font-size="8" text-anchor="middle" fill="#8b949e">12AM</text>
        </g>

        <g transform="translate(34, 0)">
          <rect x="0" y="127.72727272727272" width="10" height="7.272727272727273" fill="#58a6ff" opacity="0.85">
            <title>1AM: 2 commits</title>
          </rect>
          
        </g>

        <g transform="translate(48, 0)">
          <rect x="0" y="55" width="10" height="80" fill="#58a6ff" opacity="0.85">
            <title>2AM: 22 commits</title>
          </rect>
          
        </g>

        <g transform="translate(62, 0)">
          <rect x="0" y="131" width="10" height="4" fill="#58a6ff" opacity="0.85">
            <title>3AM: 0 commits</title>
          </rect>
          
        </g>

        <g transform="translate(76, 0)">
          <rect x="0" y="131" width="10" height="4" fill="#58a6ff" opacity="0.85">
            <title>4AM: 0 commits</title>
          </rect>
          <text x="5" y="153" font-size="8" text-anchor="middle" fill="#8b949e">4AM</text>
        </g>

        <g transform="translate(90, 0)">
          <rect x="0" y="131" width="10" height="4" fill="#58a6ff" opacity="0.85">
            <title>5AM: 0 commits</title>
          </rect>
          
        </g>

        <g transform="translate(104, 0)">
          <rect x="0" y="131" width="10" height="4" fill="#58a6ff" opacity="0.85">
            <title>6AM: 0 commits</title>
          </rect>
          
        </g>

        <g transform="translate(118, 0)">
          <rect x="0" y="131" width="10" height="4" fill="#58a6ff" opacity="0.85">
            <title>7AM: 0 commits</title>
          </rect>
          
        </g>

        <g transform="translate(132, 0)">
          <rect x="0" y="127.72727272727272" width="10" height="7.272727272727273" fill="#58a6ff" opacity="0.85">
            <title>8AM: 2 commits</title>
          </rect>
          <text x="5" y="153" font-size="8" text-anchor="middle" fill="#8b949e">8AM</text>
        </g>

        <g transform="translate(146, 0)">
          <rect x="0" y="131" width="10" height="4" fill="#58a6ff" opacity="0.85">
            <title>9AM: 0 commits</title>
          </rect>
          
        </g>

        <g transform="translate(160, 0)">
          <rect x="0" y="131" width="10" height="4" fill="#58a6ff" opacity="0.85">
            <title>10AM: 0 commits</title>
          </rect>
          
        </g>

        <g transform="translate(174, 0)">
          <rect x="0" y="131" width="10" height="4" fill="#58a6ff" opacity="0.85">
            <title>11AM: 0 commits</title>
          </rect>
          
        </g>

        <g transform="translate(188, 0)">
          <rect x="0" y="109.54545454545455" width="10" height="25.454545454545453" fill="#58a6ff" opacity="0.85">
            <title>12PM: 7 commits</title>
          </rect>
          <text x="5" y="153" font-size="8" text-anchor="middle" fill="#8b949e">12PM</text>
        </g>

        <g transform="translate(202, 0)">
          <rect x="0" y="116.81818181818181" width="10" height="18.18181818181818" fill="#58a6ff" opacity="0.85">
            <title>1PM: 5 commits</title>
          </rect>
          
        </g>

        <g transform="translate(216, 0)">
          <rect x="0" y="113.18181818181819" width="10" height="21.818181818181817" fill="#58a6ff" opacity="0.85">
            <title>2PM: 6 commits</title>
          </rect>
          
        </g>

        <g transform="translate(230, 0)">
          <rect x="0" y="131" width="10" height="4" fill="#58a6ff" opacity="0.85">
            <title>3PM: 0 commits</title>
          </rect>
          
        </g>

        <g transform="translate(244, 0)">
          <rect x="0" y="131" width="10" height="4" fill="#58a6ff" opacity="0.85">
            <title>4PM: 0 commits</title>
          </rect>
          <text x="5" y="153" font-size="8" text-anchor="middle" fill="#8b949e">4PM</text>
        </g>

        <g transform="translate(258, 0)">
          <rect x="0" y="105.9090909090909" width="10" height="29.090909090909093" fill="#58a6ff" opacity="0.85">
            <title>5PM: 8 commits</title>
          </rect>
          
        </g>

        <g transform="translate(272, 0)">
          <rect x="0" y="124.0909090909091" width="10" height="10.909090909090908" fill="#58a6ff" opacity="0.85">
            <title>6PM: 3 commits</title>
          </rect>
          
        </g>

        <g transform="translate(286, 0)">
          <rect x="0" y="116.81818181818181" width="10" height="18.18181818181818" fill="#58a6ff" opacity="0.85">
            <title>7PM: 5 commits</title>
          </rect>
          
        </g>

        <g transform="translate(300, 0)">
          <rect x="0" y="87.72727272727272" width="10" height="47.27272727272727" fill="#58a6ff" opacity="0.85">
            <title>8PM: 13 commits</title>
          </rect>
          <text x="5" y="153" font-size="8" text-anchor="middle" fill="#8b949e">8PM</text>
        </g>

        <g transform="translate(314, 0)">
          <rect x="0" y="131" width="10" height="4" fill="#58a6ff" opacity="0.85">
            <title>9PM: 1 commits</title>
          </rect>
          
        </g>

        <g transform="translate(328, 0)">
          <rect x="0" y="131" width="10" height="4" fill="#58a6ff" opacity="0.85">
            <title>10PM: 0 commits</title>
          </rect>
          
        </g>

        <g transform="translate(342, 0)">
          <rect x="0" y="131" width="10" height="4" fill="#58a6ff" opacity="0.85">
            <title>11PM: 0 commits</title>
          </rect>
          
        </g>
    </g>
    <text x="20" y="175" class="stat"><tspan x="20" dy="0">• 2AM — 22 commits</tspan><tspan x="20" dy="14">• 8PM — 13 commits</tspan><tspan x="20" dy="14">• 5PM — 8 commits</tspan></text>
  </svg>